<?xml version="1.0" encoding="utf-8"?>
<!-- Generator: Adobe Illustrator 27.0.0, SVG Export Plug-In . SVG Version: 6.00 Build 0)  -->
<svg version="1.1" id="katman_1" xmlns="http://www.w3.org/2000/svg" xmlns:xlink="http://www.w3.org/1999/xlink" x="0px" y="13px"
	 viewBox="829 -655.4 2500 2500" style="enable-background:new 829 -655.4 2500 2500; translate: transformY(13px);" xml:space="preserve">
<style type="text/css">
	.st0{fill:url(#SVGID_1_);}
	.st1{fill:url(#SVGID_00000077306498109118791340000012843617780733148340_);}
</style>
<radialGradient id="SVGID_1_" cx="1161.1392" cy="-668.7099" r="3263.5432" gradientTransform="matrix(1 0 0 -1 0 1187.6501)" gradientUnits="userSpaceOnUse">
	<stop  offset="9.000000e-02" style="stop-color:#FA8F21"/>
	<stop  offset="0.78" style="stop-color:#D82D7E"/>
</radialGradient>
<path class="st0" d="M1662.4,594.6c0-230.1,186.5-416.7,416.6-416.7s416.7,186.6,416.7,416.7s-186.6,416.7-416.7,416.7
	S1662.4,824.7,1662.4,594.6 M1437.1,594.6c0,354.5,287.4,641.9,641.9,641.9s641.9-287.4,641.9-641.9S2433.5-47.3,2079-47.3
	S1437.1,240.1,1437.1,594.6 M2596.3-72.8c0,82.8,67.1,150,149.9,150.1c82.8,0,150-67.1,150.1-149.9s-67.1-150-149.9-150.1h-0.1
	C2663.5-222.7,2596.3-155.6,2596.3-72.8 M1574,1612c-121.9-5.5-188.1-25.9-232.1-43c-58.4-22.7-100-49.8-143.8-93.5
	c-43.8-43.7-70.9-85.3-93.5-143.7c-17.2-44-37.5-110.3-43-232.1c-6.1-131.8-7.3-171.3-7.3-505.2s1.3-373.3,7.3-505.2
	c5.6-121.9,26-188,43-232.1c22.7-58.4,49.8-100,93.5-143.8c43.7-43.8,85.3-70.9,143.8-93.5c44-17.2,110.3-37.5,232.1-43
	c131.8-6.1,171.3-7.3,505-7.3s373.3,1.3,505.1,7.3c121.9,5.6,188,26,232.1,43c58.4,22.6,100,49.8,143.8,93.5s70.8,85.4,93.5,143.8
	c17.2,44,37.5,110.3,43,232.1c6.1,131.9,7.3,171.3,7.3,505.2s-1.2,373.3-7.3,505.2c-5.6,121.9-25.9,188.1-43,232.1
	c-22.7,58.4-49.8,100-93.5,143.7c-43.7,43.7-85.4,70.8-143.8,93.5c-44,17.2-110.3,37.5-232.1,43c-131.8,6.1-171.3,7.3-505.1,7.3
	S1705.7,1618.1,1574,1612 M1563.7-647.9c-133.1,6.1-224,27.2-303.4,58.1c-82.2,31.9-151.9,74.7-221.4,144.2
	c-69.6,69.5-112.3,139.2-144.2,221.4c-30.9,79.5-52,170.3-58.1,303.4c-6.2,133.3-7.6,175.9-7.6,515.3s1.4,382.1,7.6,515.3
	c6.1,133.1,27.2,223.9,58.1,303.4c31.9,82.2,74.6,152,144.2,221.4c69.6,69.4,139.2,112.2,221.4,144.2c79.6,30.9,170.3,52,303.4,58.1
	c133.3,6.1,175.9,7.6,515.3,7.6s382.1-1.4,515.4-7.6c133.1-6.1,223.9-27.2,303.4-58.1c82.2-32,151.9-74.7,221.4-144.2
	c69.6-69.5,112.2-139.2,144.2-221.4c30.9-79.5,52.1-170.3,58.1-303.4c6.1-133.4,7.5-175.9,7.5-515.3s-1.4-382.1-7.5-515.3
	c-6.1-133.1-27.2-224-58.1-303.4c-32-82.2-74.7-151.9-144.2-221.4s-139.2-112.3-221.3-144.2c-79.6-30.9-170.4-52.1-303.4-58.1
	c-133.3-6.1-175.9-7.6-515.4-7.6S1697-654,1563.7-647.9"/>
<radialGradient id="SVGID_00000163757274632384120330000006788095381414484910_" cx="2345.1394" cy="-780.7099" r="2572.1196" gradientTransform="matrix(1 0 0 -1 0 1187.6501)" gradientUnits="userSpaceOnUse">
	<stop  offset="0.64" style="stop-color:#8C3AAA;stop-opacity:0"/>
	<stop  offset="1" style="stop-color:#8C3AAA"/>
</radialGradient>
<path style="fill:url(#SVGID_00000163757274632384120330000006788095381414484910_);" d="M1662.4,594.6
	c0-230.1,186.5-416.7,416.6-416.7s416.7,186.6,416.7,416.7s-186.6,416.7-416.7,416.7S1662.4,824.7,1662.4,594.6 M1437.1,594.6
	c0,354.5,287.4,641.9,641.9,641.9s641.9-287.4,641.9-641.9S2433.5-47.3,2079-47.3S1437.1,240.1,1437.1,594.6 M2596.3-72.8
	c0,82.8,67.1,150,149.9,150.1c82.8,0,150-67.1,150.1-149.9s-67.1-150-149.9-150.1h-0.1C2663.5-222.7,2596.3-155.6,2596.3-72.8
	 M1574,1612c-121.9-5.5-188.1-25.9-232.1-43c-58.4-22.7-100-49.8-143.8-93.5c-43.8-43.7-70.9-85.3-93.5-143.7
	c-17.2-44-37.5-110.3-43-232.1c-6.1-131.8-7.3-171.3-7.3-505.2s1.3-373.3,7.3-505.2c5.6-121.9,26-188,43-232.1
	c22.7-58.4,49.8-100,93.5-143.8c43.7-43.8,85.3-70.9,143.8-93.5c44-17.2,110.3-37.5,232.1-43c131.8-6.1,171.3-7.3,505-7.3
	s373.3,1.3,505.1,7.3c121.9,5.6,188,26,232.1,43c58.4,22.6,100,49.8,143.8,93.5s70.8,85.4,93.5,143.8c17.2,44,37.5,110.3,43,232.1
	c6.1,131.9,7.3,171.3,7.3,505.2s-1.2,373.3-7.3,505.2c-5.6,121.9-25.9,188.1-43,232.1c-22.7,58.4-49.8,100-93.5,143.7
	c-43.7,43.7-85.4,70.8-143.8,93.5c-44,17.2-110.3,37.5-232.1,43c-131.8,6.1-171.3,7.3-505.1,7.3S1705.7,1618.1,1574,1612
	 M1563.7-647.9c-133.1,6.1-224,27.2-303.4,58.1c-82.2,31.9-151.9,74.7-221.4,144.2c-69.6,69.5-112.3,139.2-144.2,221.4
	c-30.9,79.5-52,170.3-58.1,303.4c-6.2,133.3-7.6,175.9-7.6,515.3s1.4,382.1,7.6,515.3c6.1,133.1,27.2,223.9,58.1,303.4
	c31.9,82.2,74.6,152,144.2,221.4c69.6,69.4,139.2,112.2,221.4,144.2c79.6,30.9,170.3,52,303.4,58.1c133.3,6.1,175.9,7.6,515.3,7.6
	s382.1-1.4,515.4-7.6c133.1-6.1,223.9-27.2,303.4-58.1c82.2-32,151.9-74.7,221.4-144.2c69.6-69.5,112.2-139.2,144.2-221.4
	c30.9-79.5,52.1-170.3,58.1-303.4c6.1-133.4,7.5-175.9,7.5-515.3s-1.4-382.1-7.5-515.3c-6.1-133.1-27.2-224-58.1-303.4
	c-32-82.2-74.7-151.9-144.2-221.4s-139.2-112.3-221.3-144.2c-79.6-30.9-170.4-52.1-303.4-58.1c-133.3-6.1-175.9-7.6-515.4-7.6
	S1697-654,1563.7-647.9"/>
</svg>
