<?xml version="1.0" encoding="utf-8"?>
<!-- Generator: Adobe Illustrator 26.0.1, SVG Export Plug-In . SVG Version: 6.00 Build 0)  -->
<svg version="1.1"
	 id="svg1" inkscape:export-filename="1720277793025.png" xmlns:inkscape="http://www.inkscape.org/namespaces/inkscape" xmlns:sodipodi="http://sodipodi.sourceforge.net/DTD/sodipodi-0.dtd" xmlns:svg="http://www.w3.org/2000/svg"
	 xmlns="http://www.w3.org/2000/svg" xmlns:xlink="http://www.w3.org/1999/xlink" x="0px" y="0px" viewBox="0 0 2176 2278.7"
	 style="enable-background:new 0 0 2176 2278.7;" xml:space="preserve">
<g>
	<defs>
		
			<inkscape:path-effect  apply_no_radius="true" apply_with_radius="true" chamfer_steps="1" effect="fillet_chamfer" flexible="false" hide_knots="false" id="path-effect50" is_visible="true" lpeversion="1" method="auto" mode="F" nodesatellites_param="F,0,0,1,0,0,0,1 @ F,0,0,1,0,0,0,1 @ F,0,0,1,0,150.00001,0,1 @ F,0,0,1,0,0,0,1 @ F,0,0,1,0,0,0,1 @ F,0,0,1,0,0,0,1 @ F,0,0,1,0,0,0,1 @ F,0,0,1,0,0,0,1" only_selected="false" radius="0" unit="px" use_knot_distance="true">
			</inkscape:path-effect>
		
			<inkscape:path-effect  apply_no_radius="true" apply_with_radius="true" chamfer_steps="1" effect="fillet_chamfer" flexible="false" hide_knots="false" id="path-effect49" is_visible="true" lpeversion="1" method="auto" mode="F" nodesatellites_param="F,0,0,1,0,0,0,1 @ F,0,0,1,0,0,0,1 @ F,0,0,1,0,150,0,1 @ F,0,0,1,0,0,0,1" only_selected="false" radius="0" unit="px" use_knot_distance="true">
			</inkscape:path-effect>
		
			<inkscape:path-effect  apply_no_radius="true" apply_with_radius="true" chamfer_steps="1" effect="fillet_chamfer" flexible="false" hide_knots="false" id="path-effect48" is_visible="true" lpeversion="1" method="auto" mode="F" nodesatellites_param="F,0,0,1,0,0,0,1 @ F,0,0,1,0,149.99996,0,1 @ F,0,0,1,0,0,0,1 @ F,0,0,1,0,0,0,1" only_selected="false" radius="0" unit="px" use_knot_distance="true">
			</inkscape:path-effect>
		
			<inkscape:path-effect  apply_no_radius="true" apply_with_radius="true" chamfer_steps="1" effect="fillet_chamfer" flexible="false" hide_knots="false" id="path-effect47" is_visible="true" lpeversion="1" method="auto" mode="F" nodesatellites_param="F,0,0,1,0,4.2171041e-06,0,1 @ F,0,0,1,0,150.00001,0,1 @ F,0,0,1,0,150.00001,0,1 @ F,0,0,1,0,4.2171041e-06,0,1 @ F,0,0,1,0,4.2171041e-06,0,1 @ F,0,0,1,0,4.2171041e-06,0,1 @ F,0,0,1,0,4.2171041e-06,0,1 @ F,0,0,1,0,4.2171041e-06,0,1" only_selected="false" radius="4.2171041e-06" unit="px" use_knot_distance="true">
			</inkscape:path-effect>
		
			<inkscape:path-effect  apply_no_radius="true" apply_with_radius="true" chamfer_steps="1" effect="fillet_chamfer" flexible="false" hide_knots="false" id="path-effect38" is_visible="true" lpeversion="1" method="auto" mode="F" nodesatellites_param="F,0,0,1,0,0,0,1 @ F,0,0,1,0,0,0,1 @ F,0,0,1,0,0,0,1 @ F,0,0,1,0,0,0,1" only_selected="false" radius="0" unit="px" use_knot_distance="true">
			</inkscape:path-effect>
		
			<inkscape:path-effect  apply_no_radius="true" apply_with_radius="true" chamfer_steps="1" effect="fillet_chamfer" flexible="false" hide_knots="false" id="path-effect37" is_visible="true" lpeversion="1" method="auto" mode="F" nodesatellites_param="F,0,0,1,0,4.2171041e-06,0,1 @ F,0,0,1,0,250.00001,0,1 @ F,0,0,1,0,250.00001,0,1 @ F,0,0,1,0,4.2171041e-06,0,1 @ F,0,0,1,0,4.2171041e-06,0,1 @ F,0,0,1,0,4.2171041e-06,0,1 @ F,0,0,1,0,4.2171041e-06,0,1 @ F,0,0,1,0,4.2171041e-06,0,1" only_selected="false" radius="0" unit="px" use_knot_distance="true">
			</inkscape:path-effect>
	</defs>
	
		<sodipodi:namedview  bordercolor="#cccccc" borderopacity="1" guidecolor="#0615b2" guidehicolor="#0000ff" guidehiopacity="0.49803922" guideopacity="0.6" id="namedview1" inkscape:current-layer="layer3" inkscape:cx="599.62655" inkscape:cy="1105.915" inkscape:deskcolor="#d1d1d1" inkscape:pagecheckerboard="0" inkscape:pageopacity="1" inkscape:showpageshadow="0" inkscape:window-height="705" inkscape:window-maximized="1" inkscape:window-width="1366" inkscape:window-x="-8" inkscape:window-y="-8" inkscape:zoom="0.1767767" pagecolor="#ffffff" showgrid="true" showguides="false">
		<sodipodi:guide  id="guide4" inkscape:locked="false" orientation="0,-1" position="2450,2078.6667"></sodipodi:guide>
		<sodipodi:guide  id="guide5" inkscape:locked="false" orientation="1,0" position="150,1428.6667"></sodipodi:guide>
		<sodipodi:guide  id="guide6" inkscape:locked="false" orientation="1,0" position="450,1528.6667"></sodipodi:guide>
		<sodipodi:guide  id="guide7" inkscape:locked="false" orientation="1,0" position="600,978.6667"></sodipodi:guide>
		<sodipodi:guide  id="guide8" inkscape:locked="false" orientation="1,0" position="900,1078.6667"></sodipodi:guide>
		<sodipodi:guide  id="guide9" inkscape:locked="false" orientation="1,0" position="1050,1278.6667"></sodipodi:guide>
		<sodipodi:guide  id="guide10" inkscape:locked="false" orientation="1,0" position="1200,1078.6667"></sodipodi:guide>
		<sodipodi:guide  id="guide11" inkscape:locked="false" orientation="1,0" position="1350,1328.6667"></sodipodi:guide>
		<sodipodi:guide  id="guide12" inkscape:locked="false" orientation="1,0" position="1650,1128.6667"></sodipodi:guide>
		<sodipodi:guide  id="guide13" inkscape:locked="false" orientation="0,-1" position="2750,1928.6667"></sodipodi:guide>
		<sodipodi:guide  id="guide14" inkscape:locked="false" orientation="0,-1" position="2350,1778.6667"></sodipodi:guide>
		<sodipodi:guide  id="guide15" inkscape:locked="false" orientation="0,-1" position="2550,1628.6667"></sodipodi:guide>
		<sodipodi:guide  id="guide16" inkscape:locked="false" orientation="0,-1" position="2300,1478.6667"></sodipodi:guide>
		<sodipodi:guide  id="guide17" inkscape:locked="false" orientation="0,-1" position="2500,1328.6667"></sodipodi:guide>
		<sodipodi:guide  id="guide18" inkscape:locked="false" orientation="0,-1" position="2650,1178.6667"></sodipodi:guide>
		<sodipodi:guide  id="guide19" inkscape:locked="false" orientation="0,-1" position="1400,1028.6667"></sodipodi:guide>
		<sodipodi:guide  id="guide20" inkscape:locked="false" orientation="0,-1" position="2300,878.6667"></sodipodi:guide>
		<sodipodi:guide  id="guide21" inkscape:locked="false" orientation="0,-1" position="2550,728.6667"></sodipodi:guide>
		<sodipodi:guide  id="guide22" inkscape:locked="false" orientation="0,-1" position="2550,578.6667"></sodipodi:guide>
		<sodipodi:guide  id="guide23" inkscape:locked="false" orientation="0,-1" position="2650,428.6667"></sodipodi:guide>
		<sodipodi:guide  id="guide24" inkscape:locked="false" orientation="1,0" position="1950,678.6667"></sodipodi:guide>
	</sodipodi:namedview>
	<path d="M1988.7,765.6h-150c-41.4,0-75-36.6-75-81.8V192.8c0-45.2-33.6-81.8-75-81.8h-1350c-41.4,0-75,36.6-75,81.8v1636.4
		c0,45.2,33.6,81.8,75,81.8h1650c41.4,0,75-36.6,75-81.8V847.4C2063.7,802.2,2030.1,765.6,1988.7,765.6z M563.7,1665.6V356.5
		c0-45.2,33.6-81.8,75-81.8h750c41.4,0,75,36.6,75,81.8v327.3c0,45.2-33.6,81.8-75,81.8h-150c-41.4,0-75,36.6-75,81.8v0
		c0,45.2,33.6,81.8,75,81.8h450c41.4,0,75,36.6,75,81.8v654.5c0,45.2-33.6,81.8-75,81.8h-1050
		C597.3,1747.4,563.7,1710.8,563.7,1665.6z"/>
	<g id="g50" transform="translate(101.29733,164.60817)" inkscape:label="s group">
		<path d="M1512.4,1091.9c0,0,0,36.6,0,81.8v163.6v0c0,45.2-33.6,81.8-75,81.8h-750c-41.4,0-75-36.6-75-81.8v0v-57.9l0,0
			c0-13.2,9.8-24,22-24h503c41.4,0,75-36.6,75-81.8v0l0,0c0-45.2-33.6-81.8-75-81.8h-450c-41.4,0-75-36.6-75-81.8v0v-57.9
			c0-14.8,0-24,0-24h0c0,0,0-73.1,0-163.4V437.1v-81.6c0-45.2,33.6-81.8,75-81.8h225c0,0,0,0,0,0h225c41.4,0,75,36.6,75,81.8v0v57.9
			v0c0,13.2-9.8,24-22,24h-203c-41.4,0-75,36.6-75,81.8v245.7v81.6c0,45.2,33.6,81.8,75,81.8h450c41.4,0,75,36.6,75,81.8v0v57.9
			C1512.4,1082.7,1512.4,1091.9,1512.4,1091.9L1512.4,1091.9z"/>
	</g>
</g>
</svg>
